<svg width="64" height="64" version="1.1" viewBox="0 0 16.933 16.933" xmlns="http://www.w3.org/2000/svg">
 <path d="m3.9686 3.7 2.9104-2.9104h8.2021v12.7h-11.112z" style="fill:#ffffff"/>
 <path d="m5.2915 5.82v0.5293l-0.00182 5.819h8.4668l0.0018-6.3483zm1.0585 1.5878h6.3516l-0.0017 3.7039h-6.3516z" style="color-rendering:auto;color:#000000;dominant-baseline:auto;fill:#000000;font-feature-settings:normal;font-variant-alternates:normal;font-variant-caps:normal;font-variant-ligatures:normal;font-variant-numeric:normal;font-variant-position:normal;image-rendering:auto;isolation:auto;mix-blend-mode:normal;paint-order:stroke fill markers;shape-padding:0;shape-rendering:auto;solid-color:#000000;text-decoration-color:#000000;text-decoration-line:none;text-decoration-style:solid;text-indent:0;text-orientation:mixed;text-transform:none;white-space:normal"/>
 <path d="m3.704 3.44 6e-7 10.319h11.642v-13.229h-8.7312zm0.52917 0.26459 2.6458-2.6458h7.9375v12.171h-10.583z" style="color-rendering:auto;color:#000000;dominant-baseline:auto;fill:#000000;font-feature-settings:normal;font-variant-alternates:normal;font-variant-caps:normal;font-variant-ligatures:normal;font-variant-numeric:normal;font-variant-position:normal;image-rendering:auto;isolation:auto;mix-blend-mode:normal;paint-order:stroke fill markers;shape-padding:0;shape-rendering:auto;solid-color:#000000;text-decoration-color:#000000;text-decoration-line:none;text-decoration-style:solid;text-indent:0;text-orientation:mixed;text-transform:none;white-space:normal"/>
 <rect x="5.8207" y="6.35" width="7.4083" height="5.2917" ry="0" style="fill:#80ff80;paint-order:stroke fill markers"/>
 <path d="m6.6145 10.84v4.7625l-1.8521-1.8521-2.3813 2.3812-1.0583-1.0583 2.3813-2.3812-1.8521-1.8521z" style="fill:#ff0000"/>
 <path d="m1.2129 10.58 2.1172 2.1172-2.3809 2.3809 1.4316 1.4316 2.3809-2.3809 2.1172 2.1172v-5.666h-0.26367zm1.2793 0.5293h3.8574v3.8594l-1.5879-1.5879-2.3809 2.3809-0.68359-0.68359 2.3809-2.3828z" style="color-rendering:auto;color:#000000;dominant-baseline:auto;fill:#000000;font-feature-settings:normal;font-variant-alternates:normal;font-variant-caps:normal;font-variant-ligatures:normal;font-variant-numeric:normal;font-variant-position:normal;image-rendering:auto;isolation:auto;mix-blend-mode:normal;shape-padding:0;shape-rendering:auto;solid-color:#000000;text-decoration-color:#000000;text-decoration-line:none;text-decoration-style:solid;text-indent:0;text-orientation:mixed;text-transform:none;white-space:normal"/>
 <path d="m6.3496 0.79v2.3828h-2.3809v0.52929h2.9102v-2.9121z" style="color-rendering:auto;color:#000000;dominant-baseline:auto;fill:#000000;font-feature-settings:normal;font-variant-alternates:normal;font-variant-caps:normal;font-variant-ligatures:normal;font-variant-numeric:normal;font-variant-position:normal;image-rendering:auto;isolation:auto;mix-blend-mode:normal;shape-padding:0;shape-rendering:auto;solid-color:#000000;text-decoration-color:#000000;text-decoration-line:none;text-decoration-style:solid;text-indent:0;text-orientation:mixed;text-transform:none;white-space:normal"/>
</svg>
