<svg width="64" height="64" version="1.1" viewBox="0 0 16.933 16.933" xmlns="http://www.w3.org/2000/svg">
 <path d="m5.0271 1.32h7.4083l3.7042 3.7042v10.583h-11.112z" style="fill:#ffffff"/>
 <path d="m4.7625 1.05v14.817h11.642v-10.848l-3.9688-3.9688zm0.52917 0.52917 6.8792-1e-5 3.7042 3.7042v10.054h-10.583z" style="color-rendering:auto;color:#000000;dominant-baseline:auto;fill:#000000;font-feature-settings:normal;font-variant-alternates:normal;font-variant-caps:normal;font-variant-ligatures:normal;font-variant-numeric:normal;font-variant-position:normal;image-rendering:auto;isolation:auto;mix-blend-mode:normal;paint-order:stroke fill markers;shape-padding:0;shape-rendering:auto;solid-color:#000000;text-decoration-color:#000000;text-decoration-line:none;text-decoration-style:solid;text-indent:0;text-orientation:mixed;text-transform:none;white-space:normal"/>
 <path d="m12.171 1.32v3.9688h3.9688l-0.26458-0.52917h-3.175v-3.175z" style="fill:#000000"/>
 <path d="m0.52917 4.76-1.1e-7 9.525 7.9375 1e-5 1.2e-6 -9.525zm0.52917 0.52917 6.8792 1e-5 -2.2e-6 8.4667-6.8792-1e-5z" style="color-rendering:auto;color:#000000;dominant-baseline:auto;fill:#000000;font-feature-settings:normal;font-variant-alternates:normal;font-variant-caps:normal;font-variant-ligatures:normal;font-variant-numeric:normal;font-variant-position:normal;image-rendering:auto;isolation:auto;mix-blend-mode:normal;paint-order:stroke fill markers;shape-padding:0;shape-rendering:auto;solid-color:#000000;text-decoration-color:#000000;text-decoration-line:none;text-decoration-style:solid;text-indent:0;text-orientation:mixed;text-transform:none;white-space:normal"/>
 <rect x="1.0583" y="5.29" width="6.8792" height="8.4667" rx="5.3162e-7" ry="0" style="fill:#ffffff;paint-order:stroke fill markers"/>
 <path d="m9.5249 12.81 3.2832-3.2852-3.2832-3.2852v2.2266h-5.8223v2.1172h5.8223zm0.5293-1.2793v-1.4766h-5.8223v-1.0586h5.8223v-1.4766l2.0059 2.0059z" style="color-rendering:auto;color:#000000;dominant-baseline:auto;fill:#000000;font-feature-settings:normal;font-variant-alternates:normal;font-variant-caps:normal;font-variant-ligatures:normal;font-variant-numeric:normal;font-variant-position:normal;image-rendering:auto;isolation:auto;mix-blend-mode:normal;shape-padding:0;shape-rendering:auto;solid-color:#000000;text-decoration-color:#000000;text-decoration-line:none;text-decoration-style:solid;text-indent:0;text-orientation:mixed;text-transform:none;white-space:normal"/>
 <path d="m3.9673 8.73h5.8208v-1.8521l2.6458 2.6458-2.6458 2.6458v-1.8521h-5.8208z" style="fill:#ff0000"/>
</svg>
