<svg width="64" height="64" version="1.1" viewBox="0 0 16.933 16.933" xmlns="http://www.w3.org/2000/svg">
 <path d="m1.3234 15.61v-10.054h4.7625v2.1167l5.0266 6.7e-4v7.9375z" style="fill:#f5d471"/>
 <path d="m1.0591 5.29v10.582h0.26367l10.319 1e-3v-8.4667l-5.2915-2e-3v-2.1152zm0.5293 0.52929h4.2324v2.1152l5.2917 1e-3v7.4083l-9.5241-2e-3z" style="color-rendering:auto;color:#000000;dominant-baseline:auto;fill:#000000;font-feature-settings:normal;font-variant-alternates:normal;font-variant-caps:normal;font-variant-ligatures:normal;font-variant-numeric:normal;font-variant-position:normal;image-rendering:auto;isolation:auto;mix-blend-mode:normal;shape-padding:0;shape-rendering:auto;solid-color:#000000;text-decoration-color:#000000;text-decoration-line:none;text-decoration-style:solid;text-indent:0;text-orientation:mixed;text-transform:none;white-space:normal"/>
 <path d="m1.588 15.61h10.848l3.175-5.8208h-10.319z" style="fill:#ffe79c"/>
 <path d="m5.147 9.52-4.041 6.3496h11.486l3.4648-6.3496zm0.29102 0.5293h9.7285l-2.8867 5.291h-10.209z" style="color-rendering:auto;color:#000000;dominant-baseline:auto;fill:#000000;font-feature-settings:normal;font-variant-alternates:normal;font-variant-caps:normal;font-variant-ligatures:normal;font-variant-numeric:normal;font-variant-position:normal;image-rendering:auto;isolation:auto;mix-blend-mode:normal;shape-padding:0;shape-rendering:auto;solid-color:#000000;text-decoration-color:#000000;text-decoration-line:none;text-decoration-style:solid;text-indent:0;text-orientation:mixed;text-transform:none;white-space:normal"/>
 <path d="m14.023 1.32v4.2333h1.8521l-2.6458 2.6458-2.6458-2.6458h1.8521v-4.2333z" style="fill:#ff0000"/>
 <path d="m12.17 1.05v4.2324h-2.2246l3.2832 3.2852 3.2852-3.2852h-2.2266v-4.2324h-0.26367zm0.5293 0.5293h1.0586v4.2324h1.4785l-2.0078 2.0078-2.0078-2.0078h1.4785z" style="color-rendering:auto;color:#000000;dominant-baseline:auto;fill:#000000;font-feature-settings:normal;font-variant-alternates:normal;font-variant-caps:normal;font-variant-ligatures:normal;font-variant-numeric:normal;font-variant-position:normal;image-rendering:auto;isolation:auto;mix-blend-mode:normal;shape-padding:0;shape-rendering:auto;solid-color:#000000;text-decoration-color:#000000;text-decoration-line:none;text-decoration-style:solid;text-indent:0;text-orientation:mixed;text-transform:none;white-space:normal"/>
</svg>
